<mxfile host="app.diagrams.net" modified="2024-04-16T20:14:47.613Z" agent="Mozilla/5.0 (Windows NT 10.0; Win64; x64) AppleWebKit/537.36 (KHTML, like Gecko) Chrome/121.0.0.0 Safari/537.36 OPR/107.0.0.0" etag="DcRF6_u85KsLdKNG_6Rf" version="24.2.5" type="github">
  <diagram name="Página-1" id="As6hmzaDS1T9EtF5dl5o">
    <mxGraphModel dx="3350" dy="2524" grid="1" gridSize="10" guides="1" tooltips="1" connect="1" arrows="1" fold="1" page="1" pageScale="1" pageWidth="827" pageHeight="1169" math="0" shadow="0">
      <root>
        <mxCell id="0" />
        <mxCell id="1" parent="0" />
        <mxCell id="q8mXjOCZ6ccS71Or4Or0-2" value="" style="rounded=0;whiteSpace=wrap;html=1;" parent="1" vertex="1">
          <mxGeometry x="-300" y="-1030" width="1310" height="1070" as="geometry" />
        </mxCell>
        <mxCell id="o3chmT3TO9uyqXTMzpFR-2" style="edgeStyle=orthogonalEdgeStyle;rounded=0;orthogonalLoop=1;jettySize=auto;html=1;entryX=0.5;entryY=0;entryDx=0;entryDy=0;endArrow=none;endFill=0;" edge="1" parent="1" source="q8mXjOCZ6ccS71Or4Or0-3" target="q8mXjOCZ6ccS71Or4Or0-5">
          <mxGeometry relative="1" as="geometry" />
        </mxCell>
        <mxCell id="q8mXjOCZ6ccS71Or4Or0-3" value="Realizar&amp;nbsp;&lt;span style=&quot;background-color: initial;&quot;&gt;chamadas&lt;/span&gt;" style="ellipse;whiteSpace=wrap;html=1;" parent="1" vertex="1">
          <mxGeometry x="500" y="-859" width="140" height="70" as="geometry" />
        </mxCell>
        <mxCell id="o3chmT3TO9uyqXTMzpFR-1" style="edgeStyle=orthogonalEdgeStyle;rounded=0;orthogonalLoop=1;jettySize=auto;html=1;" edge="1" parent="1" source="q8mXjOCZ6ccS71Or4Or0-4" target="q8mXjOCZ6ccS71Or4Or0-3">
          <mxGeometry relative="1" as="geometry">
            <Array as="points">
              <mxPoint x="-250" y="-435" />
              <mxPoint x="-250" y="-824" />
            </Array>
          </mxGeometry>
        </mxCell>
        <mxCell id="o3chmT3TO9uyqXTMzpFR-10" style="edgeStyle=orthogonalEdgeStyle;rounded=0;orthogonalLoop=1;jettySize=auto;html=1;" edge="1" parent="1" source="q8mXjOCZ6ccS71Or4Or0-4" target="o3chmT3TO9uyqXTMzpFR-9">
          <mxGeometry relative="1" as="geometry">
            <Array as="points">
              <mxPoint x="-255" y="-775" />
            </Array>
          </mxGeometry>
        </mxCell>
        <mxCell id="o3chmT3TO9uyqXTMzpFR-11" style="edgeStyle=orthogonalEdgeStyle;rounded=0;orthogonalLoop=1;jettySize=auto;html=1;entryX=0;entryY=0.5;entryDx=0;entryDy=0;" edge="1" parent="1" source="q8mXjOCZ6ccS71Or4Or0-4" target="q8mXjOCZ6ccS71Or4Or0-9">
          <mxGeometry relative="1" as="geometry">
            <Array as="points">
              <mxPoint x="-255" y="-689" />
            </Array>
          </mxGeometry>
        </mxCell>
        <mxCell id="o3chmT3TO9uyqXTMzpFR-22" style="edgeStyle=orthogonalEdgeStyle;rounded=0;orthogonalLoop=1;jettySize=auto;html=1;entryX=0;entryY=0.5;entryDx=0;entryDy=0;" edge="1" parent="1" source="q8mXjOCZ6ccS71Or4Or0-4" target="q8mXjOCZ6ccS71Or4Or0-6">
          <mxGeometry relative="1" as="geometry">
            <Array as="points">
              <mxPoint x="-255" y="-909" />
            </Array>
          </mxGeometry>
        </mxCell>
        <mxCell id="o3chmT3TO9uyqXTMzpFR-23" style="edgeStyle=orthogonalEdgeStyle;rounded=0;orthogonalLoop=1;jettySize=auto;html=1;entryX=0;entryY=0.5;entryDx=0;entryDy=0;" edge="1" parent="1" source="q8mXjOCZ6ccS71Or4Or0-4" target="q8mXjOCZ6ccS71Or4Or0-19">
          <mxGeometry relative="1" as="geometry">
            <Array as="points">
              <mxPoint x="-255" y="-165" />
            </Array>
          </mxGeometry>
        </mxCell>
        <mxCell id="o3chmT3TO9uyqXTMzpFR-40" style="edgeStyle=orthogonalEdgeStyle;rounded=0;orthogonalLoop=1;jettySize=auto;html=1;entryX=0;entryY=0.5;entryDx=0;entryDy=0;" edge="1" parent="1" source="q8mXjOCZ6ccS71Or4Or0-4" target="q8mXjOCZ6ccS71Or4Or0-26">
          <mxGeometry relative="1" as="geometry" />
        </mxCell>
        <mxCell id="q8mXjOCZ6ccS71Or4Or0-4" value="celular&lt;div&gt;&lt;br&gt;&lt;/div&gt;" style="shape=umlActor;html=1;verticalLabelPosition=bottom;verticalAlign=top;align=center;" parent="1" vertex="1">
          <mxGeometry x="-380" y="-465" width="30" height="60" as="geometry" />
        </mxCell>
        <mxCell id="q8mXjOCZ6ccS71Or4Or0-5" value="Informar telefone" style="ellipse;whiteSpace=wrap;html=1;" parent="1" vertex="1">
          <mxGeometry x="500" y="-710" width="140" height="70" as="geometry" />
        </mxCell>
        <mxCell id="q8mXjOCZ6ccS71Or4Or0-6" value="Registrar as ultimas chamadas" style="ellipse;whiteSpace=wrap;html=1;" parent="1" vertex="1">
          <mxGeometry x="310" y="-944" width="140" height="70" as="geometry" />
        </mxCell>
        <mxCell id="o3chmT3TO9uyqXTMzpFR-13" style="edgeStyle=orthogonalEdgeStyle;rounded=0;orthogonalLoop=1;jettySize=auto;html=1;entryX=0.5;entryY=1;entryDx=0;entryDy=0;" edge="1" parent="1" source="q8mXjOCZ6ccS71Or4Or0-7" target="q8mXjOCZ6ccS71Or4Or0-9">
          <mxGeometry relative="1" as="geometry" />
        </mxCell>
        <mxCell id="o3chmT3TO9uyqXTMzpFR-14" style="edgeStyle=orthogonalEdgeStyle;rounded=0;orthogonalLoop=1;jettySize=auto;html=1;entryX=0.5;entryY=1;entryDx=0;entryDy=0;" edge="1" parent="1" source="q8mXjOCZ6ccS71Or4Or0-7" target="q8mXjOCZ6ccS71Or4Or0-15">
          <mxGeometry relative="1" as="geometry" />
        </mxCell>
        <mxCell id="o3chmT3TO9uyqXTMzpFR-28" style="edgeStyle=orthogonalEdgeStyle;rounded=0;orthogonalLoop=1;jettySize=auto;html=1;" edge="1" parent="1" source="q8mXjOCZ6ccS71Or4Or0-7" target="q8mXjOCZ6ccS71Or4Or0-20">
          <mxGeometry relative="1" as="geometry" />
        </mxCell>
        <mxCell id="o3chmT3TO9uyqXTMzpFR-29" style="edgeStyle=orthogonalEdgeStyle;rounded=0;orthogonalLoop=1;jettySize=auto;html=1;entryX=0.5;entryY=1;entryDx=0;entryDy=0;" edge="1" parent="1" source="q8mXjOCZ6ccS71Or4Or0-7" target="q8mXjOCZ6ccS71Or4Or0-21">
          <mxGeometry relative="1" as="geometry">
            <Array as="points">
              <mxPoint x="200" y="-240" />
            </Array>
          </mxGeometry>
        </mxCell>
        <mxCell id="o3chmT3TO9uyqXTMzpFR-31" style="edgeStyle=orthogonalEdgeStyle;rounded=0;orthogonalLoop=1;jettySize=auto;html=1;entryX=1;entryY=0.5;entryDx=0;entryDy=0;" edge="1" parent="1" source="q8mXjOCZ6ccS71Or4Or0-7" target="o3chmT3TO9uyqXTMzpFR-30">
          <mxGeometry relative="1" as="geometry" />
        </mxCell>
        <mxCell id="o3chmT3TO9uyqXTMzpFR-45" style="edgeStyle=orthogonalEdgeStyle;rounded=0;orthogonalLoop=1;jettySize=auto;html=1;entryX=0;entryY=0.5;entryDx=0;entryDy=0;" edge="1" parent="1" source="q8mXjOCZ6ccS71Or4Or0-7" target="o3chmT3TO9uyqXTMzpFR-44">
          <mxGeometry relative="1" as="geometry">
            <Array as="points">
              <mxPoint x="-355" y="-105" />
            </Array>
          </mxGeometry>
        </mxCell>
        <mxCell id="o3chmT3TO9uyqXTMzpFR-47" style="edgeStyle=orthogonalEdgeStyle;rounded=0;orthogonalLoop=1;jettySize=auto;html=1;entryX=0;entryY=0.5;entryDx=0;entryDy=0;" edge="1" parent="1" source="q8mXjOCZ6ccS71Or4Or0-7" target="q8mXjOCZ6ccS71Or4Or0-29">
          <mxGeometry relative="1" as="geometry">
            <Array as="points">
              <mxPoint x="-355" y="-35" />
            </Array>
          </mxGeometry>
        </mxCell>
        <mxCell id="o3chmT3TO9uyqXTMzpFR-49" style="edgeStyle=orthogonalEdgeStyle;rounded=0;orthogonalLoop=1;jettySize=auto;html=1;entryX=0;entryY=0.5;entryDx=0;entryDy=0;" edge="1" parent="1" source="q8mXjOCZ6ccS71Or4Or0-7" target="q8mXjOCZ6ccS71Or4Or0-31">
          <mxGeometry relative="1" as="geometry" />
        </mxCell>
        <mxCell id="q8mXjOCZ6ccS71Or4Or0-7" value="sistema" style="shape=umlActor;html=1;verticalLabelPosition=bottom;verticalAlign=top;align=center;" parent="1" vertex="1">
          <mxGeometry x="-370" y="-270" width="30" height="60" as="geometry" />
        </mxCell>
        <mxCell id="o3chmT3TO9uyqXTMzpFR-8" style="edgeStyle=orthogonalEdgeStyle;rounded=0;orthogonalLoop=1;jettySize=auto;html=1;endArrow=none;endFill=0;" edge="1" parent="1" source="q8mXjOCZ6ccS71Or4Or0-9" target="q8mXjOCZ6ccS71Or4Or0-5">
          <mxGeometry relative="1" as="geometry">
            <mxPoint x="520" y="-710" as="targetPoint" />
            <Array as="points">
              <mxPoint x="520" y="-689" />
            </Array>
          </mxGeometry>
        </mxCell>
        <mxCell id="q8mXjOCZ6ccS71Or4Or0-9" value="Serviço de mensagem" style="ellipse;whiteSpace=wrap;html=1;" parent="1" vertex="1">
          <mxGeometry x="210" y="-724" width="140" height="70" as="geometry" />
        </mxCell>
        <mxCell id="o3chmT3TO9uyqXTMzpFR-6" style="edgeStyle=orthogonalEdgeStyle;rounded=0;orthogonalLoop=1;jettySize=auto;html=1;entryX=1;entryY=0.5;entryDx=0;entryDy=0;" edge="1" parent="1" source="q8mXjOCZ6ccS71Or4Or0-11" target="q8mXjOCZ6ccS71Or4Or0-5">
          <mxGeometry relative="1" as="geometry">
            <Array as="points">
              <mxPoint x="740" y="-520" />
              <mxPoint x="740" y="-675" />
            </Array>
          </mxGeometry>
        </mxCell>
        <mxCell id="o3chmT3TO9uyqXTMzpFR-20" style="edgeStyle=orthogonalEdgeStyle;rounded=0;orthogonalLoop=1;jettySize=auto;html=1;entryX=1;entryY=0.5;entryDx=0;entryDy=0;" edge="1" parent="1" source="q8mXjOCZ6ccS71Or4Or0-11" target="q8mXjOCZ6ccS71Or4Or0-19">
          <mxGeometry relative="1" as="geometry" />
        </mxCell>
        <mxCell id="o3chmT3TO9uyqXTMzpFR-37" style="edgeStyle=orthogonalEdgeStyle;rounded=0;orthogonalLoop=1;jettySize=auto;html=1;entryX=1;entryY=0.5;entryDx=0;entryDy=0;" edge="1" parent="1" source="q8mXjOCZ6ccS71Or4Or0-11" target="q8mXjOCZ6ccS71Or4Or0-25">
          <mxGeometry relative="1" as="geometry" />
        </mxCell>
        <mxCell id="o3chmT3TO9uyqXTMzpFR-38" style="edgeStyle=orthogonalEdgeStyle;rounded=0;orthogonalLoop=1;jettySize=auto;html=1;entryX=0.5;entryY=0;entryDx=0;entryDy=0;" edge="1" parent="1" source="q8mXjOCZ6ccS71Or4Or0-11" target="q8mXjOCZ6ccS71Or4Or0-24">
          <mxGeometry relative="1" as="geometry" />
        </mxCell>
        <mxCell id="q8mXjOCZ6ccS71Or4Or0-11" value="usuario" style="shape=umlActor;html=1;verticalLabelPosition=bottom;verticalAlign=top;align=center;" parent="1" vertex="1">
          <mxGeometry x="1050" y="-550" width="30" height="60" as="geometry" />
        </mxCell>
        <mxCell id="o3chmT3TO9uyqXTMzpFR-17" style="edgeStyle=orthogonalEdgeStyle;rounded=0;orthogonalLoop=1;jettySize=auto;html=1;entryX=0;entryY=0.5;entryDx=0;entryDy=0;endArrow=none;endFill=0;" edge="1" parent="1" source="q8mXjOCZ6ccS71Or4Or0-15" target="q8mXjOCZ6ccS71Or4Or0-16">
          <mxGeometry relative="1" as="geometry" />
        </mxCell>
        <mxCell id="q8mXjOCZ6ccS71Or4Or0-15" value="Serviço de agenda" style="ellipse;whiteSpace=wrap;html=1;" parent="1" vertex="1">
          <mxGeometry x="350" y="-584" width="140" height="70" as="geometry" />
        </mxCell>
        <mxCell id="o3chmT3TO9uyqXTMzpFR-18" style="edgeStyle=orthogonalEdgeStyle;rounded=0;orthogonalLoop=1;jettySize=auto;html=1;" edge="1" parent="1" source="q8mXjOCZ6ccS71Or4Or0-16" target="q8mXjOCZ6ccS71Or4Or0-17">
          <mxGeometry relative="1" as="geometry" />
        </mxCell>
        <mxCell id="o3chmT3TO9uyqXTMzpFR-19" style="edgeStyle=orthogonalEdgeStyle;rounded=0;orthogonalLoop=1;jettySize=auto;html=1;" edge="1" parent="1" source="q8mXjOCZ6ccS71Or4Or0-16" target="q8mXjOCZ6ccS71Or4Or0-18">
          <mxGeometry relative="1" as="geometry" />
        </mxCell>
        <mxCell id="q8mXjOCZ6ccS71Or4Or0-16" value="Cadastrar contatos" style="ellipse;whiteSpace=wrap;html=1;" parent="1" vertex="1">
          <mxGeometry x="530" y="-480" width="140" height="70" as="geometry" />
        </mxCell>
        <mxCell id="q8mXjOCZ6ccS71Or4Or0-17" value="Nome do contato" style="ellipse;whiteSpace=wrap;html=1;" parent="1" vertex="1">
          <mxGeometry x="530" y="-590" width="140" height="70" as="geometry" />
        </mxCell>
        <mxCell id="q8mXjOCZ6ccS71Or4Or0-18" value="Telefone do contato" style="ellipse;whiteSpace=wrap;html=1;" parent="1" vertex="1">
          <mxGeometry x="440" y="-410" width="140" height="70" as="geometry" />
        </mxCell>
        <mxCell id="o3chmT3TO9uyqXTMzpFR-25" style="edgeStyle=orthogonalEdgeStyle;rounded=0;orthogonalLoop=1;jettySize=auto;html=1;" edge="1" parent="1" source="q8mXjOCZ6ccS71Or4Or0-19" target="o3chmT3TO9uyqXTMzpFR-24">
          <mxGeometry relative="1" as="geometry" />
        </mxCell>
        <mxCell id="o3chmT3TO9uyqXTMzpFR-27" style="edgeStyle=orthogonalEdgeStyle;rounded=0;orthogonalLoop=1;jettySize=auto;html=1;entryX=0.5;entryY=0;entryDx=0;entryDy=0;" edge="1" parent="1" source="q8mXjOCZ6ccS71Or4Or0-19" target="o3chmT3TO9uyqXTMzpFR-26">
          <mxGeometry relative="1" as="geometry" />
        </mxCell>
        <mxCell id="q8mXjOCZ6ccS71Or4Or0-19" value="consultar telefone" style="ellipse;whiteSpace=wrap;html=1;" parent="1" vertex="1">
          <mxGeometry x="670" y="-200" width="140" height="70" as="geometry" />
        </mxCell>
        <mxCell id="q8mXjOCZ6ccS71Or4Or0-20" value="Guardar as ultimas ligações" style="ellipse;whiteSpace=wrap;html=1;" parent="1" vertex="1">
          <mxGeometry x="20" y="-660" width="140" height="70" as="geometry" />
        </mxCell>
        <mxCell id="q8mXjOCZ6ccS71Or4Or0-21" value="Ultima mensagem enviada" style="ellipse;whiteSpace=wrap;html=1;" parent="1" vertex="1">
          <mxGeometry x="130" y="-584" width="140" height="70" as="geometry" />
        </mxCell>
        <mxCell id="o3chmT3TO9uyqXTMzpFR-34" style="edgeStyle=orthogonalEdgeStyle;rounded=0;orthogonalLoop=1;jettySize=auto;html=1;entryX=0;entryY=0.5;entryDx=0;entryDy=0;" edge="1" parent="1" source="q8mXjOCZ6ccS71Or4Or0-23" target="q8mXjOCZ6ccS71Or4Or0-24">
          <mxGeometry relative="1" as="geometry" />
        </mxCell>
        <mxCell id="o3chmT3TO9uyqXTMzpFR-35" style="edgeStyle=orthogonalEdgeStyle;rounded=0;orthogonalLoop=1;jettySize=auto;html=1;entryX=0;entryY=0.5;entryDx=0;entryDy=0;" edge="1" parent="1" source="q8mXjOCZ6ccS71Or4Or0-23" target="q8mXjOCZ6ccS71Or4Or0-25">
          <mxGeometry relative="1" as="geometry" />
        </mxCell>
        <mxCell id="q8mXjOCZ6ccS71Or4Or0-23" value="Avisar recebimento de chamada" style="ellipse;whiteSpace=wrap;html=1;" parent="1" vertex="1">
          <mxGeometry x="490" y="-300" width="140" height="70" as="geometry" />
        </mxCell>
        <mxCell id="q8mXjOCZ6ccS71Or4Or0-24" value="aceitar chamada" style="ellipse;whiteSpace=wrap;html=1;" parent="1" vertex="1">
          <mxGeometry x="670" y="-390" width="140" height="70" as="geometry" />
        </mxCell>
        <mxCell id="q8mXjOCZ6ccS71Or4Or0-25" value="recusar chamada" style="ellipse;whiteSpace=wrap;html=1;" parent="1" vertex="1">
          <mxGeometry x="670" y="-300" width="140" height="70" as="geometry" />
        </mxCell>
        <mxCell id="q8mXjOCZ6ccS71Or4Or0-26" value="gravar ligações" style="ellipse;whiteSpace=wrap;html=1;" parent="1" vertex="1">
          <mxGeometry x="-150" y="-475" width="140" height="70" as="geometry" />
        </mxCell>
        <mxCell id="q8mXjOCZ6ccS71Or4Or0-28" value="registrar ultimas mensagens" style="ellipse;whiteSpace=wrap;html=1;" parent="1" vertex="1">
          <mxGeometry x="230" y="-130" width="140" height="70" as="geometry" />
        </mxCell>
        <mxCell id="o3chmT3TO9uyqXTMzpFR-48" style="edgeStyle=orthogonalEdgeStyle;rounded=0;orthogonalLoop=1;jettySize=auto;html=1;endArrow=none;endFill=0;" edge="1" parent="1" source="q8mXjOCZ6ccS71Or4Or0-29" target="q8mXjOCZ6ccS71Or4Or0-30">
          <mxGeometry relative="1" as="geometry" />
        </mxCell>
        <mxCell id="q8mXjOCZ6ccS71Or4Or0-29" value="Despertador" style="ellipse;whiteSpace=wrap;html=1;" parent="1" vertex="1">
          <mxGeometry x="-180" y="-70" width="140" height="70" as="geometry" />
        </mxCell>
        <mxCell id="q8mXjOCZ6ccS71Or4Or0-30" value="cadastrar horarios" style="ellipse;whiteSpace=wrap;html=1;" parent="1" vertex="1">
          <mxGeometry x="10" y="-60" width="140" height="70" as="geometry" />
        </mxCell>
        <mxCell id="q8mXjOCZ6ccS71Or4Or0-31" value="toques de aviso para recebimento de mensagens" style="ellipse;whiteSpace=wrap;html=1;" parent="1" vertex="1">
          <mxGeometry x="-150" y="-360" width="140" height="70" as="geometry" />
        </mxCell>
        <mxCell id="o3chmT3TO9uyqXTMzpFR-9" value="Registrar as ultimas mensagens" style="ellipse;whiteSpace=wrap;html=1;" vertex="1" parent="1">
          <mxGeometry x="310" y="-810" width="140" height="70" as="geometry" />
        </mxCell>
        <mxCell id="o3chmT3TO9uyqXTMzpFR-24" value="ligar para contato" style="ellipse;whiteSpace=wrap;html=1;" vertex="1" parent="1">
          <mxGeometry x="580" y="-40" width="140" height="70" as="geometry" />
        </mxCell>
        <mxCell id="o3chmT3TO9uyqXTMzpFR-26" value="enviar mensagens" style="ellipse;whiteSpace=wrap;html=1;" vertex="1" parent="1">
          <mxGeometry x="760" y="-40" width="140" height="70" as="geometry" />
        </mxCell>
        <mxCell id="o3chmT3TO9uyqXTMzpFR-32" style="edgeStyle=orthogonalEdgeStyle;rounded=0;orthogonalLoop=1;jettySize=auto;html=1;endArrow=none;endFill=0;" edge="1" parent="1" source="o3chmT3TO9uyqXTMzpFR-30" target="q8mXjOCZ6ccS71Or4Or0-23">
          <mxGeometry relative="1" as="geometry" />
        </mxCell>
        <mxCell id="o3chmT3TO9uyqXTMzpFR-30" value="recebimento de&amp;nbsp;&lt;div&gt;chamada&lt;/div&gt;" style="ellipse;whiteSpace=wrap;html=1;direction=west;" vertex="1" parent="1">
          <mxGeometry x="270" y="-300" width="140" height="70" as="geometry" />
        </mxCell>
        <mxCell id="o3chmT3TO9uyqXTMzpFR-46" style="edgeStyle=orthogonalEdgeStyle;rounded=0;orthogonalLoop=1;jettySize=auto;html=1;entryX=0;entryY=0.5;entryDx=0;entryDy=0;endArrow=none;endFill=0;" edge="1" parent="1" source="o3chmT3TO9uyqXTMzpFR-44" target="q8mXjOCZ6ccS71Or4Or0-28">
          <mxGeometry relative="1" as="geometry" />
        </mxCell>
        <mxCell id="o3chmT3TO9uyqXTMzpFR-44" value="Recebimento de mensagens" style="ellipse;whiteSpace=wrap;html=1;" vertex="1" parent="1">
          <mxGeometry x="50" y="-140" width="140" height="70" as="geometry" />
        </mxCell>
      </root>
    </mxGraphModel>
  </diagram>
</mxfile>
